<svg width="30" height="30" viewBox="0 0 30 30" fill="none" xmlns="http://www.w3.org/2000/svg">
<g clip-path="url(#clip0_319_31)">
<path d="M13.0314 0.815625C14.1189 -0.271875 15.8814 -0.271875 16.9689 0.815625L29.1845 13.0331C30.272 14.1206 30.272 15.8812 29.1845 16.9669L16.9689 29.1844C15.8814 30.2719 14.1208 30.2719 13.0351 29.1844L0.815759 16.9688C0.557128 16.7106 0.35194 16.4041 0.21194 16.0666C0.0719403 15.7291 -0.00012207 15.3673 -0.00012207 15.0019C-0.00012207 14.6365 0.0719403 14.2747 0.21194 13.9372C0.35194 13.5997 0.557128 13.2931 0.815759 13.035L13.0314 0.815625ZM15.6564 2.12812C15.4823 1.95409 15.2463 1.85632 15.0001 1.85632C14.754 1.85632 14.5179 1.95409 14.3439 2.12812L2.12638 14.3438C1.95235 14.5178 1.85458 14.7539 1.85458 15C1.85458 15.2461 1.95235 15.4822 2.12638 15.6563L14.3439 27.8738C14.5179 28.0478 14.754 28.1456 15.0001 28.1456C15.2463 28.1456 15.4823 28.0478 15.6564 27.8738L27.8739 15.6563C28.0479 15.4822 28.1457 15.2461 28.1457 15C28.1457 14.7539 28.0479 14.5178 27.8739 14.3438L15.6564 2.12625V2.12812Z" fill="currentColor"/>
<path d="M13.1288 20.625C13.1288 20.3788 13.1773 20.135 13.2715 19.9075C13.3657 19.68 13.5038 19.4733 13.678 19.2992C13.8521 19.1251 14.0588 18.987 14.2863 18.8927C14.5137 18.7985 14.7576 18.75 15.0038 18.75C15.25 18.75 15.4938 18.7985 15.7213 18.8927C15.9488 18.987 16.1555 19.1251 16.3296 19.2992C16.5037 19.4733 16.6418 19.68 16.7361 19.9075C16.8303 20.135 16.8788 20.3788 16.8788 20.625C16.8788 21.1223 16.6812 21.5992 16.3296 21.9508C15.978 22.3025 15.5011 22.5 15.0038 22.5C14.5065 22.5 14.0296 22.3025 13.678 21.9508C13.3263 21.5992 13.1288 21.1223 13.1288 20.625ZM13.3125 9.36562C13.2876 9.12908 13.3126 8.88992 13.386 8.66368C13.4595 8.43743 13.5796 8.22915 13.7388 8.05235C13.8979 7.87555 14.0924 7.73417 14.3097 7.6374C14.527 7.54063 14.7622 7.49062 15 7.49062C15.2379 7.49062 15.4731 7.54063 15.6904 7.6374C15.9077 7.73417 16.1022 7.87555 16.2613 8.05235C16.4204 8.22915 16.5406 8.43743 16.614 8.66368C16.6875 8.88992 16.7125 9.12908 16.6875 9.36562L16.0313 15.9412C16.0092 16.1996 15.891 16.4402 15.7001 16.6156C15.5091 16.7909 15.2593 16.8882 15 16.8882C14.7408 16.8882 14.491 16.7909 14.3 16.6156C14.109 16.4402 13.9908 16.1996 13.9688 15.9412L13.3125 9.36562Z" fill="currentColor"/>
</g>
<defs>
<clipPath id="clip0_319_31">
<rect width="30" height="30" fill="currentColor"/>
</clipPath>
</defs>
</svg>
