<svg width="200" height="200" viewBox="0 0 200 200" fill="none" xmlns="http://www.w3.org/2000/svg">
<g filter="url(#filter0_d_455_182)">
<path d="M69.4569 82.5042C69.4569 71.3042 60.3729 62.2222 49.1709 62.2222C37.9689 62.2222 28.8889 71.3042 28.8889 82.5042C28.8889 93.7122 37.9669 102.79 49.1709 102.79C60.3749 102.79 69.4569 93.7122 69.4569 82.5042ZM150.347 66.1842C139.147 66.1842 130.065 75.2662 130.065 86.4662C130.065 97.6742 139.147 106.748 150.347 106.748C161.549 106.748 170.631 97.6742 170.631 86.4662C170.631 75.2662 161.551 66.1842 150.347 66.1842ZM131.925 109.044C130.515 107.306 128.519 105.294 126.227 103.184C120.111 95.2582 110.545 90.1302 99.7609 90.1302C90.1629 90.1302 81.5349 94.1942 75.4369 100.67C71.9729 103.684 68.8929 106.626 66.9329 109.046L65.6209 110.648C59.5009 118.11 51.8829 127.394 51.9389 143.148C51.9929 157.778 63.9069 169.688 78.4949 169.688C82.5432 169.697 86.5389 168.77 90.1701 166.981C93.8013 165.191 96.97 162.586 99.4289 159.37C101.888 162.587 105.058 165.193 108.69 166.983C112.322 168.772 116.319 169.698 120.369 169.688C134.951 169.688 146.863 157.78 146.919 143.148C146.975 127.394 139.355 118.11 133.237 110.648L131.925 109.044V109.044Z" fill="#2D2D2D"/>
</g>
<g filter="url(#filter1_d_455_182)">
<path d="M101.406 76.104C113.75 76.104 123.756 66.0976 123.756 53.754C123.756 41.4104 113.75 31.404 101.406 31.404C89.0625 31.404 79.056 41.4104 79.056 53.754C79.056 66.0976 89.0625 76.104 101.406 76.104Z" fill="#2D2D2D"/>
</g>
<defs>
<filter id="filter0_d_455_182" x="11.8889" y="45.2222" width="181.742" height="147.466" filterUnits="userSpaceOnUse" color-interpolation-filters="sRGB">
<feFlood flood-opacity="0" result="BackgroundImageFix"/>
<feColorMatrix in="SourceAlpha" type="matrix" values="0 0 0 0 0 0 0 0 0 0 0 0 0 0 0 0 0 0 127 0" result="hardAlpha"/>
<feOffset dx="3" dy="3"/>
<feGaussianBlur stdDeviation="10"/>
<feComposite in2="hardAlpha" operator="out"/>
<feColorMatrix type="matrix" values="0 0 0 0 0 0 0 0 0 0 0 0 0 0 0 0 0 0 0.25 0"/>
<feBlend mode="normal" in2="BackgroundImageFix" result="effect1_dropShadow_455_182"/>
<feBlend mode="normal" in="SourceGraphic" in2="effect1_dropShadow_455_182" result="shape"/>
</filter>
<filter id="filter1_d_455_182" x="62.056" y="14.404" width="84.7" height="84.7" filterUnits="userSpaceOnUse" color-interpolation-filters="sRGB">
<feFlood flood-opacity="0" result="BackgroundImageFix"/>
<feColorMatrix in="SourceAlpha" type="matrix" values="0 0 0 0 0 0 0 0 0 0 0 0 0 0 0 0 0 0 127 0" result="hardAlpha"/>
<feOffset dx="3" dy="3"/>
<feGaussianBlur stdDeviation="10"/>
<feComposite in2="hardAlpha" operator="out"/>
<feColorMatrix type="matrix" values="0 0 0 0 0 0 0 0 0 0 0 0 0 0 0 0 0 0 0.25 0"/>
<feBlend mode="normal" in2="BackgroundImageFix" result="effect1_dropShadow_455_182"/>
<feBlend mode="normal" in="SourceGraphic" in2="effect1_dropShadow_455_182" result="shape"/>
</filter>
</defs>
</svg>
