<svg width="30" height="30" viewBox="0 0 30 30" fill="none" xmlns="http://www.w3.org/2000/svg">
<g clip-path="url(#clip0_141_72)">
<path d="M10.5006 0C4.7292 0 0 4.7157 0 10.4706C0 12.7005 0.7122 14.7723 1.9179 16.476L9.219 29.0982C10.2417 30.4341 10.9212 30.1806 11.7714 29.028L14.8395 23.8065C13.5992 23.1942 12.518 22.3023 11.6811 21.201C10.5367 19.7021 9.89608 17.8795 9.8511 15.9942C7.056 15.6783 4.92 13.35 4.92 10.4706C4.92 7.3716 7.3929 4.9062 10.5006 4.9062C12.5214 4.9062 14.268 5.9523 15.246 7.5333C16.8594 6.83277 18.6433 6.62233 20.3754 6.9282C18.9099 2.9007 15.027 0 10.5006 0Z" fill="currentColor"/>
<path d="M19.8387 8.2485C17.9121 7.9875 15.8862 8.4591 14.2227 9.726C10.8957 12.2592 10.2486 17.0358 12.7821 20.3628C15.1536 23.4768 19.4841 24.2277 22.7571 22.2339L23.382 23.0547C23.3212 23.1962 23.2925 23.3364 23.298 23.4656C23.3035 23.5948 23.343 23.7099 23.4138 23.8029L27.9498 29.7594C28.0795 29.9296 28.3057 30.0153 28.5786 29.9977C28.8516 29.98 29.149 29.8604 29.4054 29.6652C29.5324 29.5685 29.6455 29.4562 29.7383 29.3346C29.8311 29.2129 29.9017 29.0845 29.9461 28.9565C29.9905 28.8284 30.0079 28.7034 29.9971 28.5885C29.9864 28.4736 29.9478 28.371 29.8836 28.2867L25.3476 22.3302C25.2767 22.2372 25.1763 22.1686 25.0532 22.129C24.9301 22.0893 24.7874 22.0797 24.6348 22.1007L24.0096 21.2796C26.8026 18.6546 27.2307 14.2806 24.8595 11.1666C23.5926 9.5028 21.7653 8.5095 19.8387 8.2485ZM19.6137 9.9096C20.3825 10.0134 21.1232 10.2681 21.7932 10.6592C22.4632 11.0503 23.0492 11.57 23.5176 12.1884C23.9889 12.8045 24.3338 13.5077 24.5326 14.2575C24.7315 15.0073 24.7802 15.789 24.6761 16.5577C24.572 17.3264 24.3171 18.067 23.926 18.7369C23.5349 19.4068 23.0153 19.9929 22.3971 20.4615C21.781 20.9327 21.0778 21.2776 20.3281 21.4764C19.5783 21.6752 18.7966 21.7239 18.0279 21.6198C17.2593 21.5157 16.5187 21.2608 15.8488 20.8697C15.179 20.4787 14.5929 19.9592 14.1243 19.341C13.6531 18.7249 13.3081 18.0218 13.1093 17.272C12.9105 16.5222 12.8618 15.7406 12.9659 14.9719C13.0699 14.2032 13.3248 13.4627 13.7158 12.7928C14.1069 12.1229 14.6264 11.5368 15.2445 11.0682C15.8605 10.5966 16.5636 10.2515 17.3134 10.0526C18.0633 9.85378 18.845 9.80517 19.6137 9.9096Z" fill="currentColor"/>
</g>
<defs>
<clipPath id="clip0_141_72">
<rect width="30" height="30" fill="white"/>
</clipPath>
</defs>
</svg>
