<svg width="30" height="30" viewBox="0 0 30 30" fill="none" xmlns="http://www.w3.org/2000/svg">
<path d="M9 15C9 15.7956 8.68393 16.5587 8.12132 17.1213C7.55871 17.6839 6.79565 18 6 18C5.20435 18 4.44129 17.6839 3.87868 17.1213C3.31607 16.5587 3 15.7956 3 15C3 14.2044 3.31607 13.4413 3.87868 12.8787C4.44129 12.3161 5.20435 12 6 12C6.79565 12 7.55871 12.3161 8.12132 12.8787C8.68393 13.4413 9 14.2044 9 15ZM18 15C18 15.7956 17.6839 16.5587 17.1213 17.1213C16.5587 17.6839 15.7956 18 15 18C14.2044 18 13.4413 17.6839 12.8787 17.1213C12.3161 16.5587 12 15.7956 12 15C12 14.2044 12.3161 13.4413 12.8787 12.8787C13.4413 12.3161 14.2044 12 15 12C15.7956 12 16.5587 12.3161 17.1213 12.8787C17.6839 13.4413 18 14.2044 18 15ZM24 18C24.7956 18 25.5587 17.6839 26.1213 17.1213C26.6839 16.5587 27 15.7956 27 15C27 14.2044 26.6839 13.4413 26.1213 12.8787C25.5587 12.3161 24.7956 12 24 12C23.2044 12 22.4413 12.3161 21.8787 12.8787C21.3161 13.4413 21 14.2044 21 15C21 15.7956 21.3161 16.5587 21.8787 17.1213C22.4413 17.6839 23.2044 18 24 18Z" fill="currentColor"/>
</svg>
