<svg width="24" height="25" viewBox="0 0 24 25" fill="none" xmlns="http://www.w3.org/2000/svg">
<path d="M11.9999 12.5V20.38C12.0399 20.68 11.9399 21 11.7099 21.21C11.6174 21.3027 11.5075 21.3762 11.3865 21.4264C11.2655 21.4766 11.1359 21.5024 11.0049 21.5024C10.8739 21.5024 10.7442 21.4766 10.6233 21.4264C10.5023 21.3762 10.3924 21.3027 10.2999 21.21L8.28989 19.2C8.18082 19.0934 8.09789 18.963 8.04759 18.819C7.99728 18.675 7.98095 18.5213 7.99989 18.37V12.5H7.96989L2.20989 5.12C2.0475 4.91153 1.97422 4.64726 2.00607 4.38493C2.03793 4.1226 2.17232 3.88355 2.37989 3.72C2.56989 3.58 2.77989 3.5 2.99989 3.5H16.9999C17.2199 3.5 17.4299 3.58 17.6199 3.72C17.8275 3.88355 17.9618 4.1226 17.9937 4.38493C18.0256 4.64726 17.9523 4.91153 17.7899 5.12L12.0299 12.5H11.9999ZM17.7499 21.5L14.9999 18.5L16.1599 17.34L17.7499 18.93L21.3399 15.34L22.4999 16.75L17.7499 21.5Z" fill="currentColor"/>
</svg>
