<svg width="24" height="25" viewBox="0 0 24 25" fill="none" xmlns="http://www.w3.org/2000/svg">
<path d="M18.71 20C17.88 21.24 17 22.45 15.66 22.47C14.32 22.5 13.89 21.68 12.37 21.68C10.84 21.68 10.37 22.45 9.1 22.5C7.79 22.55 6.8 21.18 5.96 19.97C4.25 17.5 2.94 12.95 4.7 9.89C5.57 8.37 7.13 7.41 8.82 7.38C10.1 7.36 11.32 8.25 12.11 8.25C12.89 8.25 14.37 7.18 15.92 7.34C16.57 7.37 18.39 7.6 19.56 9.32C19.47 9.38 17.39 10.6 17.41 13.13C17.44 16.15 20.06 17.16 20.09 17.17C20.06 17.24 19.67 18.61 18.71 20ZM13 4C13.73 3.17 14.94 2.54 15.94 2.5C16.07 3.67 15.6 4.85 14.9 5.69C14.21 6.54 13.07 7.2 11.95 7.11C11.8 5.96 12.36 4.76 13 4Z" fill="currentColor"/>
</svg>
