<svg width="24" height="25" viewBox="0 0 24 25" fill="none" xmlns="http://www.w3.org/2000/svg">
<path d="M8.35 3.50003C9.53 3.33003 10.78 4.62003 11.14 6.40003C11.5 8.17003 10.85 9.75003 9.67 9.93003C8.5 10.11 7.24 8.82003 6.87 7.04003C6.5 5.27003 7.17 3.69003 8.35 3.50003ZM15.5 3.50003C16.69 3.69003 17.35 5.27003 17 7.04003C16.62 8.82003 15.37 10.11 14.19 9.93003C13 9.75003 12.35 8.17003 12.72 6.40003C13.08 4.62003 14.33 3.33003 15.5 3.50003ZM3 8.10003C4.14 7.61003 5.69 8.50003 6.5 10.05C7.26 11.63 7 13.29 5.87 13.78C4.74 14.27 3.2 13.39 2.41 11.82C1.62 10.25 1.9 8.58003 3 8.10003ZM21 8.10003C22.1 8.58003 22.38 10.25 21.59 11.82C20.8 13.39 19.26 14.27 18.13 13.78C17 13.29 16.74 11.63 17.5 10.05C18.31 8.50003 19.86 7.61003 21 8.10003ZM19.33 18.88C19.37 19.82 18.65 20.86 17.79 21.25C16 22.07 13.88 20.37 11.89 20.37C9.9 20.37 7.76 22.14 6 21.25C5 20.76 4.31 19.46 4.44 18.38C4.62 16.89 6.41 16.09 7.47 15C8.88 13.59 9.88 10.94 11.89 10.94C13.89 10.94 14.95 13.55 16.3 15C17.41 16.22 19.26 17.25 19.33 18.88Z" fill="currentColor"/>
</svg>
