<svg width="30" height="30" viewBox="0 0 30 30" fill="none" xmlns="http://www.w3.org/2000/svg">
<path d="M25 21.25C25.7167 21.25 26.3208 21.5 26.8125 22C27.3042 22.5 27.5458 23.0833 27.5375 23.75L17.5 27.5L8.75001 25V13.75H11.1875L20.275 17.1125C20.925 17.3708 21.25 17.8375 21.25 18.5125C21.25 18.9042 21.1083 19.2458 20.825 19.5375C20.5417 19.8292 20.1833 19.9833 19.75 20H16.25L14.0625 19.1625L13.65 20.3375L16.25 21.25H25ZM20 4.0375C20.8833 3.0125 22.0083 2.5 23.375 2.5C24.5083 2.5 25.4667 2.91667 26.25 3.75C27.0333 4.58333 27.45 5.54167 27.5 6.625C27.5 7.48333 27.0833 8.50833 26.25 9.7C25.4167 10.8917 24.5958 11.8875 23.7875 12.6875C22.9792 13.4875 21.7167 14.675 20 16.25C18.2667 14.675 16.9917 13.4875 16.175 12.6875C15.3583 11.8875 14.5375 10.8917 13.7125 9.7C12.8875 8.50833 12.4833 7.48333 12.5 6.625C12.5 5.49167 12.9042 4.53333 13.7125 3.75C14.5208 2.96667 15.4958 2.55 16.6375 2.5C17.9708 2.5 19.0917 3.0125 20 4.0375ZM1.23001 13.75H6.25001V27.5H1.23001V13.75Z" fill="currentColor"/>
</svg>
