<svg width="30" height="30" viewBox="0 0 30 30" fill="none" xmlns="http://www.w3.org/2000/svg">
<path d="M2.5 15L15 3.75L27.5 15H23.75V25H6.25V15H2.5ZM15 22.5L15.9 21.675C19.125 18.75 21.25 16.825 21.25 14.4625C21.25 12.5375 19.7375 11.025 17.8125 11.025C16.725 11.025 15.6875 11.5375 15 12.3375C14.6517 11.9311 14.2206 11.6038 13.7355 11.3774C13.2505 11.1511 12.7227 11.0309 12.1875 11.025C10.2625 11.025 8.75 12.5375 8.75 14.4625C8.75 16.825 10.875 18.75 14.1 21.675L15 22.5Z" fill="currentColor"/>
</svg>
