<svg width="24" height="25" viewBox="0 0 24 25" fill="none" xmlns="http://www.w3.org/2000/svg">
<path d="M13.9999 12.5V20.38C14.0399 20.68 13.9399 21 13.7099 21.21C13.6174 21.3027 13.5075 21.3762 13.3865 21.4264C13.2655 21.4766 13.1359 21.5024 13.0049 21.5024C12.8739 21.5024 12.7442 21.4766 12.6233 21.4264C12.5023 21.3762 12.3924 21.3027 12.2999 21.21L10.2899 19.2C10.1808 19.0934 10.0979 18.963 10.0476 18.819C9.99728 18.675 9.98095 18.5213 9.99989 18.37V12.5H9.96989L4.20989 5.12C4.0475 4.91153 3.97422 4.64726 4.00607 4.38493C4.03793 4.1226 4.17232 3.88355 4.37989 3.72C4.56989 3.58 4.77989 3.5 4.99989 3.5H18.9999C19.2199 3.5 19.4299 3.58 19.6199 3.72C19.8275 3.88355 19.9618 4.1226 19.9937 4.38493C20.0256 4.64726 19.9523 4.91153 19.7899 5.12L14.0299 12.5H13.9999Z" fill="currentColor"/>
</svg>
