<svg width="25" height="25" viewBox="0 0 25 25" fill="none" xmlns="http://www.w3.org/2000/svg">
<path d="M15.5 9.5H5.5V5.5H15.5M12.5 19.5C11.7044 19.5 10.9413 19.1839 10.3787 18.6213C9.81607 18.0587 9.5 17.2956 9.5 16.5C9.5 15.7044 9.81607 14.9413 10.3787 14.3787C10.9413 13.8161 11.7044 13.5 12.5 13.5C13.2956 13.5 14.0587 13.8161 14.6213 14.3787C15.1839 14.9413 15.5 15.7044 15.5 16.5C15.5 17.2956 15.1839 18.0587 14.6213 18.6213C14.0587 19.1839 13.2956 19.5 12.5 19.5ZM17.5 3.5H5.5C4.96957 3.5 4.46086 3.71071 4.08579 4.08579C3.71071 4.46086 3.5 4.96957 3.5 5.5V19.5C3.5 20.0304 3.71071 20.5391 4.08579 20.9142C4.46086 21.2893 4.96957 21.5 5.5 21.5H19.5C20.0304 21.5 20.5391 21.2893 20.9142 20.9142C21.2893 20.5391 21.5 20.0304 21.5 19.5V7.5L17.5 3.5Z" fill="currentColor"/>
</svg>
