<svg width="24" height="25" viewBox="0 0 24 25" fill="none" xmlns="http://www.w3.org/2000/svg">
<path d="M2 12.5C2 14.8869 2.94821 17.1761 4.63604 18.864C6.32387 20.5518 8.61305 21.5 11 21.5C13.39 21.5 15.68 20.56 17.4 18.9L15.9 17.4C15.2702 18.0664 14.5104 18.5966 13.6676 18.9578C12.8248 19.319 11.9169 19.5036 11 19.5C4.76 19.5 1.64 11.96 6.05 7.55C10.46 3.14 18 6.27 18 12.5H15L19 16.5H19.1L23 12.5H20C20 10.1131 19.0518 7.82387 17.364 6.13604C15.6761 4.44821 13.3869 3.5 11 3.5C8.61305 3.5 6.32387 4.44821 4.63604 6.13604C2.94821 7.82387 2 10.1131 2 12.5Z" fill="currentColor"/>
</svg>
