<svg width="30" height="30" viewBox="0 0 30 30" fill="none" xmlns="http://www.w3.org/2000/svg">
<path d="M20 21.25V17.5H11.25V12.5H20V8.75L26.25 15L20 21.25ZM17.5 2.5C18.163 2.5 18.7989 2.76339 19.2678 3.23223C19.7366 3.70107 20 4.33696 20 5V7.5H17.5V5H6.25V25H17.5V22.5H20V25C20 25.663 19.7366 26.2989 19.2678 26.7678C18.7989 27.2366 18.163 27.5 17.5 27.5H6.25C5.58696 27.5 4.95107 27.2366 4.48223 26.7678C4.01339 26.2989 3.75 25.663 3.75 25V5C3.75 4.33696 4.01339 3.70107 4.48223 3.23223C4.95107 2.76339 5.58696 2.5 6.25 2.5H17.5Z" fill="currentColor"/>
</svg>
