<svg width="14" height="14" viewBox="0 0 14 14" fill="none" xmlns="http://www.w3.org/2000/svg">
<path d="M2.33333 12.25C2.16806 12.25 2.02961 12.194 1.918 12.082C1.806 11.9704 1.75 11.8319 1.75 11.6667V8.16667C1.75 8.00139 1.806 7.86275 1.918 7.75075C2.02961 7.63914 2.16806 7.58333 2.33333 7.58333C2.49861 7.58333 2.63725 7.63914 2.74925 7.75075C2.86086 7.86275 2.91667 8.00139 2.91667 8.16667V10.2667L10.2667 2.91667H8.16667C8.00139 2.91667 7.86294 2.86067 7.75133 2.74867C7.63933 2.63706 7.58333 2.49861 7.58333 2.33333C7.58333 2.16806 7.63933 2.02942 7.75133 1.91742C7.86294 1.80581 8.00139 1.75 8.16667 1.75H11.6667C11.8319 1.75 11.9704 1.80581 12.082 1.91742C12.194 2.02942 12.25 2.16806 12.25 2.33333V5.83333C12.25 5.99861 12.194 6.13706 12.082 6.24867C11.9704 6.36067 11.8319 6.41667 11.6667 6.41667C11.5014 6.41667 11.3629 6.36067 11.2513 6.24867C11.1393 6.13706 11.0833 5.99861 11.0833 5.83333V3.73333L3.73333 11.0833H5.83333C5.99861 11.0833 6.13725 11.1393 6.24925 11.2513C6.36086 11.3629 6.41667 11.5014 6.41667 11.6667C6.41667 11.8319 6.36086 11.9704 6.24925 12.082C6.13725 12.194 5.99861 12.25 5.83333 12.25H2.33333Z" fill="currentColor"/>
</svg>
