<svg width="111" height="111" viewBox="0 0 111 111" fill="none" xmlns="http://www.w3.org/2000/svg">
<path d="M90.5853 97.125H13.875C12.6484 97.125 11.472 96.6377 10.6046 95.7704C9.73728 94.903 9.25 93.7266 9.25 92.5V27.75C9.25 26.5234 9.73728 25.347 10.6046 24.4796C11.472 23.6123 12.6484 23.125 13.875 23.125H16.5853L6.44263 12.987L12.987 6.44263L104.557 98.0176L98.013 104.557L90.5853 97.125ZM25.8353 32.375H18.5V87.875H81.3353L71.2528 77.7925C66.3621 81.6633 60.2197 83.6023 53.9931 83.2411C47.7664 82.8799 41.8895 80.2436 37.4792 75.8333C33.0689 71.423 30.4326 65.5461 30.0714 59.3194C29.7102 53.0928 31.6493 46.9504 35.52 42.0597L25.8353 32.375ZM42.1338 48.6781C40.0015 51.7942 39.0257 55.5576 39.375 59.3171C39.7244 63.0767 41.377 66.5958 44.0468 69.2657C46.7167 71.9355 50.2358 73.5881 53.9954 73.9375C57.7549 74.2868 61.5183 73.311 64.6344 71.1788L42.1338 48.6781ZM101.75 82.2556L92.5 73.0056V32.375H74.7955L65.5455 23.125H45.4545L44.0346 24.5449L37.4949 18.0051L41.625 13.875H69.375L78.625 23.125H97.125C98.3516 23.125 99.528 23.6123 100.395 24.4796C101.263 25.347 101.75 26.5234 101.75 27.75V82.2603V82.2556ZM52.0914 32.6063C55.9734 32.0808 59.9243 32.4591 63.6361 33.7116C67.3479 34.964 70.7202 37.0569 73.4903 39.8269C76.2603 42.5969 78.3531 45.9693 79.6056 49.681C80.858 53.3928 81.2363 57.3437 80.7109 61.2258L69.8976 50.4125C68.3494 47.4118 65.9053 44.9677 62.9046 43.4195L52.0914 32.6063Z" fill="currentColor"/>
</svg>
